<svg xmlns="http://www.w3.org/2000/svg" width="256" height="256" viewBox="0 0 100 100"><rect width="100" height="100" rx="50" fill="#555555"></rect><path d="M52.70 39.85L46.95 39.85Q44.86 35.02 40.55 32.25Q36.24 29.49 30.43 29.49L30.43 29.49Q24.97 29.49 20.63 32.01Q16.29 34.53 13.77 39.18Q11.25 43.84 11.25 50L11.25 50Q11.25 56.16 13.77 60.85Q16.29 65.54 20.63 68.06Q24.97 70.58 30.43 70.58L30.43 70.58Q35.55 70.58 39.64 68.38Q43.73 66.17 46.22 62.08Q48.70 57.98 49.05 52.52L49.05 52.52L28.47 52.52L28.47 48.53L54.23 48.53L54.23 52.10Q53.89 58.54 50.73 63.75Q47.59 68.97 42.30 71.98Q37.02 74.99 30.43 74.99L30.43 74.99Q23.64 74.99 18.11 71.81Q12.58 68.62 9.40 62.91Q6.21 57.21 6.21 50L6.21 50Q6.21 42.79 9.40 37.08Q12.58 31.38 18.11 28.19Q23.64 25.01 30.43 25.01L30.43 25.01Q38.27 25.01 44.16 28.93Q50.04 32.85 52.70 39.85L52.70 39.85ZM78.03 74.99Q73.20 74.99 69.53 73.31Q65.86 71.63 63.75 68.62Q61.66 65.61 61.52 61.90L61.52 61.90L66.69 61.90Q67.05 65.47 69.84 68.16Q72.64 70.86 78.03 70.86L78.03 70.86Q83.00 70.86 85.91 68.31Q88.81 65.75 88.81 61.83L88.81 61.83Q88.81 58.68 87.20 56.75Q85.59 54.83 83.22 53.88Q80.84 52.94 76.64 51.82L76.64 51.82Q71.73 50.49 68.86 49.23Q66.00 47.97 63.97 45.31Q61.94 42.65 61.94 38.10L61.94 38.10Q61.94 34.32 63.89 31.34Q65.86 28.37 69.42 26.69Q73.00 25.01 77.62 25.01L77.62 25.01Q84.41 25.01 88.57 28.33Q92.73 31.66 93.37 36.91L93.37 36.91L88.05 36.91Q87.56 33.90 84.75 31.55Q81.95 29.21 77.19 29.21L77.19 29.21Q72.78 29.21 69.84 31.55Q66.91 33.90 66.91 37.96L66.91 37.96Q66.91 41.04 68.52 42.93Q70.13 44.82 72.54 45.80Q74.95 46.78 79.09 47.90L79.09 47.90Q83.84 49.23 86.78 50.52Q89.72 51.82 91.75 54.48Q93.78 57.14 93.78 61.62L93.78 61.62Q93.78 65.05 91.97 68.13Q90.15 71.21 86.58 73.10Q83.00 74.99 78.03 74.99L78.03 74.99Z" fill="#fff"></path></svg>